<?xml version="1.0" encoding="utf-8"?>
<!-- Generator: Adobe Illustrator 27.9.0, SVG Export Plug-In . SVG Version: 6.00 Build 0)  -->
<svg version="1.1" id="Layer_1" xmlns="http://www.w3.org/2000/svg" xmlns:xlink="http://www.w3.org/1999/xlink" x="0px" y="0px"
	 viewBox="0 0 96.4 44" style="enable-background:new 0 0 96.4 44;" xml:space="preserve">
<style type="text/css">
	.st0{fill:#E24426;}
	.st1{fill:#FFFFFF;}
	.st2{fill:#1D354A;}
</style>
<g>
	<path class="st0" d="M16.5,43c3.8-3.5,9.3-13.9,9.4-21.9c-0.9,0.3-2.6,1.2-3.3,4.1c-0.4,1.7-1.4,5.6-5.3,5.3
		c-5.4-0.5-4.6-10.6,3.8-9.7c4,0.4,4.6-2.4,4.6-2.8c-0.9,0.4-2.2,0.2-3.4,0.1c-7.6-0.9-11.2,3.4-11.2,8.4c0,3,1.9,5.5,4.1,6.9
		c1.2,0.7,0.3,1.5-0.5,0.8c-2.3-1.7-5-3.8-5-8.5c0-7.8,7.9-11.2,9.8-12.6c2.8-2.1,4.1-3.8,3.4-6.8c-1.1,2-3.8,3.8-5.8,4.8
		c-5.4,2.9-9.7,7.1-9.7,13.2c0,4.9,2.1,7.5,4.7,9.6c0.6,0.5,0,1.1-0.8,0.5C7.3,31.3,5.9,27.7,5.9,23c0-8.8,11.1-16.8,6.1-23.2
		C12.1,6.3,3.7,12,3.7,22.7c0,4.8,1.9,9.6,7.3,13.4c3.2,2.2,3.6,4.8,3.2,7.1C14,44.5,15.5,43.9,16.5,43 M2.4,15C2.9,9.1,0,7.3,0,7.3
		s0.7,2.5,0.2,8.9c-0.3,4.4,1.2,7.8,2.1,9.9c0.1,0.3,0.6,0.1,0.5-0.2C2,22.8,2,19.9,2.4,15z"/>
	<path class="st2" d="M90.9,25.7c0-2.7-1.3-3.7-4-3.7c-2,0-4,0.8-4,1.5c0,0.3,0.2,0.9,0.6,1.4c1-0.6,1.8-0.9,2.9-0.9
		c1.7,0,1.8,0.8,1.8,1.8c-2.9,0-5.9,0.6-5.9,3.5c0,1.9,1.1,3.1,3.1,3.1c1.4,0,2.1-0.5,3-1.1c0.4,1.2,2,1,2.9,0.6
		c-0.3-0.5-0.4-1.1-0.4-2.3V25.7z M88.2,29.5c-0.6,0.5-1.2,0.8-1.9,0.8c-1.7,0-1.8-1.9-0.8-2.6c0.6-0.4,1.8-0.6,2.7-0.6V29.5z
		 M64.2,25.7c0-2.7-1.3-3.7-4-3.7c-2,0-4,0.8-4,1.5c0,0.3,0.2,0.9,0.6,1.4c1-0.6,1.8-0.9,2.9-0.9c1.7,0,1.8,0.8,1.8,1.8
		c-2.9,0-5.9,0.6-5.9,3.5c0,1.9,1.1,3.1,3.1,3.1c1.4,0,2.1-0.5,3-1.1c0.4,1.2,2,1,2.9,0.6c-0.3-0.5-0.4-1.1-0.4-2.3V25.7z
		 M61.6,29.5c-0.6,0.5-1.2,0.8-1.9,0.8c-1.7,0-1.8-1.9-0.8-2.6c0.6-0.4,1.8-0.6,2.7-0.6V29.5z M36.6,18.1h-3.7V32
		c0.1,0,0.9,0.1,1.1,0.1c1.1,0,1.7-0.5,1.7-1.5V27h1c3.2,0,5.5-1.4,5.5-4.8C42.2,19,39.5,18.1,36.6,18.1z M35.7,25v-4.9
		c2-0.2,3.7,0.2,3.7,2.2C39.4,25,37.5,25,35.7,25z M46.6,30.5c0,1-0.6,1.5-1.7,1.5c-0.2,0-0.9,0-1.1-0.1v-8.3c0-1,0.6-1.5,1.7-1.5
		c0.2,0,0.9,0,1.1,0.1V30.5z M78,26.7c0-1.2,0-1.6-0.1-1.9c-0.4-1.2-2.9-0.8-2.9,0.4v5.3c0,1-0.6,1.5-1.7,1.5c-0.2,0-0.9,0-1.1-0.1
		l0-5.2c0-1.2,0-1.6-0.1-1.9c-0.4-1.2-2.9-0.8-2.9,0.4v5.3c0,1-0.6,1.5-1.7,1.5c-0.2,0-0.9,0-1.1-0.1v-9.7c1.1-0.2,2.4-0.1,2.6,1
		c1.1-1.6,4.9-1.9,5.6,0.4c0.7-1.3,2.2-1.8,3.6-1.7c2.4,0.2,2.6,2.2,2.6,4.5l0,4c0,1-0.6,1.5-1.7,1.5c-0.2,0-0.9,0-1.1-0.1V26.7z
		 M48.7,32c0.1,0,0.9,0.1,1.1,0.1c1.1,0,1.7-0.5,1.7-1.5v-4.9c0-1.1,1.6-1.8,3-0.7c0.3-0.6,0.7-1.5,0.7-2c0-1.1-2.4-1.6-3.8,0.2
		c-0.3-1.1-1.6-1.1-2.7-1V32z M95.8,18.2c-0.1,0-0.7-0.1-0.9-0.1c-1.2,0-1.8,0.5-1.8,1.5V32c0.1,0,0.9,0.1,1.1,0.1
		c1.1,0,1.7-0.5,1.7-1.5V18.2z M45.2,18.1c-0.7,0-1.3,0.5-1.4,1.2c-0.1,0.9,0.7,1.7,1.6,1.6c0.8-0.1,1.3-1,1.1-1.7
		C46.4,18.5,45.8,18.1,45.2,18.1z"/>
	<g>
		<path class="st2" d="M33.1,43.8c-0.1-0.1-0.2-0.2-0.2-0.4v-6.9c0-0.2,0-0.3,0.1-0.4c0.1-0.1,0.2-0.2,0.4-0.2h4.2
			c0.1,0,0.2,0,0.3,0.1c0.1,0.1,0.1,0.2,0.1,0.3c0,0.1,0,0.2-0.1,0.3c-0.1,0.1-0.2,0.1-0.3,0.1H34v2.5h3.1c0.1,0,0.2,0,0.3,0.1
			c0.1,0.1,0.1,0.2,0.1,0.3c0,0.1,0,0.2-0.1,0.3c-0.1,0.1-0.2,0.1-0.3,0.1H34v3.2c0,0.2-0.1,0.3-0.2,0.4c-0.1,0.1-0.2,0.2-0.4,0.2
			C33.3,43.9,33.2,43.9,33.1,43.8L33.1,43.8z"/>
		<path class="st2" d="M39.2,36.8c-0.1-0.1-0.2-0.3-0.2-0.5c0-0.2,0.1-0.3,0.2-0.5c0.1-0.1,0.3-0.2,0.5-0.2c0.2,0,0.3,0.1,0.5,0.2
			c0.1,0.1,0.2,0.3,0.2,0.5c0,0.2-0.1,0.3-0.2,0.5C40,36.9,39.9,37,39.7,37C39.5,37,39.3,36.9,39.2,36.8L39.2,36.8z M39.1,43.4v-4.9
			c0-0.1,0-0.3,0.2-0.4c0.1-0.1,0.2-0.2,0.4-0.2c0.1,0,0.3,0,0.4,0.2c0.1,0.1,0.2,0.2,0.2,0.4v4.9c0,0.1,0,0.3-0.2,0.4
			c-0.1,0.1-0.2,0.2-0.4,0.2c-0.1,0-0.3,0-0.4-0.2C39.2,43.7,39.1,43.5,39.1,43.4z"/>
		<path class="st2" d="M42.1,43.8c-0.1-0.1-0.2-0.2-0.2-0.4v-4.9c0-0.1,0-0.3,0.2-0.4c0.1-0.1,0.2-0.2,0.4-0.2c0.1,0,0.3,0,0.4,0.1
			c0.1,0.1,0.2,0.2,0.2,0.4l0.3-0.1c0.6-0.3,1.1-0.4,1.6-0.4c0.4,0,0.7,0,1,0.2c0.3,0.1,0.6,0.3,0.8,0.4c0.2,0.2,0.3,0.4,0.4,0.7
			c0.1,0.3,0.1,0.6,0.1,1v3.2c0,0.1,0,0.3-0.2,0.4c-0.1,0.1-0.2,0.2-0.4,0.2c-0.1,0-0.3,0-0.4-0.2c-0.1-0.1-0.2-0.2-0.2-0.4v-3.2
			c0-0.3,0-0.5-0.1-0.6c0-0.1-0.1-0.3-0.2-0.4c-0.2-0.2-0.6-0.3-1.1-0.3h0c-0.3,0-0.5,0-0.8,0.1c-0.3,0.1-0.5,0.1-0.7,0.2
			c0,0-0.1,0-0.1,0.1c0,0,0,0.1,0,0.1v4c0,0.1,0,0.3-0.2,0.4c-0.1,0.1-0.2,0.2-0.4,0.2C42.4,43.9,42.3,43.9,42.1,43.8L42.1,43.8z"/>
		<path class="st2" d="M49.8,43.6c-0.4-0.3-0.7-0.6-0.9-1.1c-0.2-0.5-0.3-1-0.3-1.6c0-0.6,0.1-1.2,0.4-1.6c0.3-0.5,0.6-0.8,1-1.1
			c0.4-0.2,0.8-0.4,1.3-0.4c0.3,0,0.5,0,0.8,0.1c0.2,0.1,0.5,0.2,0.8,0.3l0.3,0.2v0c0-0.1,0-0.3,0.2-0.4c0.1-0.1,0.2-0.2,0.4-0.2
			c0.1,0,0.3,0,0.4,0.2c0.1,0.1,0.2,0.2,0.2,0.4v4.9c0,0.1,0,0.3-0.2,0.4c-0.1,0.1-0.2,0.2-0.4,0.2c-0.1,0-0.3,0-0.4-0.2
			c-0.1-0.1-0.2-0.2-0.2-0.4v0l-0.3,0.2c-0.3,0.2-0.6,0.3-0.8,0.3C51.7,44,51.4,44,51.1,44C50.6,44,50.2,43.9,49.8,43.6L49.8,43.6z
			 M52.2,42.9c0.3-0.1,0.6-0.2,0.8-0.3c0.1,0,0.1-0.1,0.1-0.1c0,0,0-0.1,0-0.1v-2.8c0-0.1,0-0.1,0-0.2c0,0-0.1-0.1-0.1-0.1
			c-0.2-0.1-0.5-0.2-0.8-0.3c-0.3-0.1-0.5-0.1-0.8-0.1c-0.6,0-1,0.2-1.3,0.5c-0.3,0.4-0.5,0.9-0.5,1.6c0,1.4,0.6,2.1,1.7,2.1
			C51.6,43,51.8,42.9,52.2,42.9L52.2,42.9z"/>
		<path class="st2" d="M56,43.8c-0.1-0.1-0.2-0.2-0.2-0.4v-4.9c0-0.1,0-0.3,0.2-0.4c0.1-0.1,0.2-0.2,0.4-0.2c0.1,0,0.3,0,0.4,0.1
			c0.1,0.1,0.2,0.2,0.2,0.4l0.3-0.1c0.6-0.3,1.1-0.4,1.6-0.4c0.4,0,0.7,0,1,0.2c0.3,0.1,0.6,0.3,0.8,0.4c0.2,0.2,0.3,0.4,0.4,0.7
			c0.1,0.3,0.1,0.6,0.1,1v3.2c0,0.1,0,0.3-0.2,0.4c-0.1,0.1-0.2,0.2-0.4,0.2s-0.3,0-0.4-0.2C60,43.7,60,43.5,60,43.4v-3.2
			c0-0.3,0-0.5-0.1-0.6c0-0.1-0.1-0.3-0.2-0.4c-0.2-0.2-0.6-0.3-1.1-0.3h0c-0.3,0-0.5,0-0.8,0.1c-0.3,0.1-0.5,0.1-0.7,0.2
			c0,0-0.1,0-0.1,0.1c0,0,0,0.1,0,0.1v4c0,0.1,0,0.3-0.2,0.4c-0.1,0.1-0.2,0.2-0.4,0.2C56.3,43.9,56.2,43.9,56,43.8L56,43.8z"/>
		<path class="st2" d="M63.2,43.2c-0.3-0.3-0.5-0.6-0.6-1c-0.1-0.4-0.2-0.8-0.2-1.3c0-0.5,0.1-0.9,0.3-1.3c0.2-0.4,0.4-0.7,0.7-1
			c0.3-0.2,0.5-0.4,0.9-0.5c0.3-0.1,0.7-0.2,1-0.2c0.4,0,0.8,0.1,1.2,0.3c0.4,0.2,0.7,0.5,1,0.8c0.1,0.2,0.2,0.3,0.2,0.4
			c0,0.1,0,0.2-0.1,0.3c-0.1,0.1-0.2,0.1-0.3,0.1c-0.1,0-0.2,0-0.2-0.1c-0.1,0-0.1-0.1-0.2-0.2l-0.2-0.2c-0.2-0.2-0.4-0.4-0.7-0.5
			c-0.2-0.1-0.4-0.1-0.7-0.1c-0.2,0-0.4,0-0.6,0.1c-0.2,0.1-0.4,0.2-0.5,0.3c-0.2,0.2-0.3,0.4-0.4,0.7c-0.1,0.3-0.2,0.6-0.2,0.9
			c0,0.3,0,0.6,0.1,0.9c0.1,0.3,0.2,0.5,0.4,0.7c0.3,0.4,0.8,0.5,1.4,0.5c0.4,0,0.9-0.1,1.5-0.4c0.2-0.1,0.3-0.1,0.4-0.1
			s0.2,0,0.3,0.1c0.1,0.1,0.1,0.2,0.1,0.3c0,0.1,0,0.2-0.1,0.3c0,0.1-0.1,0.2-0.3,0.2c-0.3,0.2-0.6,0.3-0.9,0.4
			c-0.4,0.1-0.7,0.2-1.1,0.2C64.5,44,63.8,43.7,63.2,43.2L63.2,43.2z"/>
		<path class="st2" d="M70.3,43.8c-0.4-0.1-0.7-0.3-0.9-0.6c-0.3-0.3-0.5-0.6-0.6-1c-0.1-0.4-0.2-0.8-0.2-1.3c0-0.6,0.1-1.1,0.4-1.6
			c0.3-0.5,0.6-0.8,1-1.1c0.4-0.3,0.9-0.4,1.5-0.4c0.5,0,1,0.1,1.4,0.4c0.4,0.3,0.8,0.6,1,1c0.2,0.4,0.4,0.9,0.4,1.4
			c0,0.2,0,0.3-0.1,0.4s-0.2,0.1-0.4,0.1h-4c0,0.5,0.2,1,0.6,1.3c0.3,0.3,0.8,0.5,1.3,0.5c0.3,0,0.5,0,0.8-0.1
			c0.2-0.1,0.5-0.2,0.8-0.4c0.1,0,0.2-0.1,0.2-0.1c0.1,0,0.1,0,0.2,0c0.1,0,0.2,0,0.3,0.1c0.1,0.1,0.1,0.2,0.1,0.3
			c0,0.1,0,0.2-0.1,0.3c-0.1,0.1-0.2,0.2-0.3,0.3c-0.2,0.2-0.5,0.3-0.9,0.4c-0.4,0.1-0.7,0.2-1.1,0.2C71.1,44,70.7,43.9,70.3,43.8
			L70.3,43.8z M73.1,40.4c0-0.5-0.2-0.8-0.5-1.1c-0.3-0.3-0.7-0.4-1.2-0.4c-0.5,0-0.9,0.1-1.2,0.4c-0.3,0.3-0.5,0.7-0.6,1.1H73.1
			L73.1,40.4z"/>
	</g>
</g>
</svg>
